<svg width="750" height="264" viewBox="0 0 750 264" fill="none" xmlns="http://www.w3.org/2000/svg">
<path d="M118 0H137L149 6L156 13L164 20L198 54L199 56V70L194 78L168 104L174 111L192 129L194 134V141L190 147L182 154H176L148 126L141 118L128 105L124 107L103 128L116 141L124 148L141 164L150 173L152 177V188L147 195L143 197H135L129 193L112 177L102 167L94 160L86 152L78 145L72 138L70 134V122L75 113L99 89L107 82L114 75L121 70L128 69L136 73L145 82L149 80L157 72L164 66L163 62L150 50L138 38L131 34H122L115 38L102 51L94 58L87 65L83 70L75 77L66 87L52 100L51 102H49L47 106L35 118L31 128V136L35 145L62 172L70 179L114 223L122 229L127 231H135L143 227L155 214L181 188L182 186H184L186 182L219 149L222 144L223 140V131L220 123L207 110L206 108V100L215 92L218 91H227L235 95L243 104L251 118L253 125L254 139L252 151L248 160L242 168L209 201L202 209L185 226L178 234L157 255L147 261L139 264H123L113 261L102 252L73 223L65 216L39 190L31 183L10 162L4 152L1 144L0 139V121L4 109L11 98L102 7L110 2L118 0Z" fill="white"/>
<path d="M319 21H340L356 24L370 31L377 38L383 50L385 61H356L352 51L347 47L339 44L334 43H323L313 46L307 51L306 53V61L310 66L321 71L356 80L372 87L380 94L385 103L386 107V124L382 135L373 145L363 151L350 155L343 156H322L307 153L296 149L288 143L281 135L277 127L275 119V113H302L306 123L313 129L320 132L325 133H341L351 130L358 124L359 116L357 111L351 106L338 101L307 93L297 89L288 83L282 76L279 68V51L283 41L292 31L299 26L312 22L319 21Z" fill="white"/>
<path d="M456 21H477L491 24L500 28L511 35L519 44L526 58L528 67H499L494 57L486 50L479 47L474 46H459L449 49L440 55L433 64L429 77L428 93L430 105L434 114L438 120L445 126L455 130L460 131H473L486 127L494 121L500 110H527L528 112L524 124L518 134L509 144L495 152L483 156L476 157H458L440 153L427 146L417 137L410 128L404 115L401 103L400 94V83L402 70L407 55L414 44L425 33L437 26L450 22L456 21Z" fill="white"/>
<path d="M634 75L653 124L664 152V153H634L624 125L570 124L567 135L561 153H532L535 143L548 109L568 57L580 25L581 24H614L634 75ZM596 51L590 67L578 101H616V99L599 53L597 50L596 51Z" fill="white"/>
<path d="M726 185H739L746 189L750 196V198H742L738 193L731 192L725 193V202L742 206L748 210L750 213V222L747 227L742 230L738 231H728L720 227L716 222L715 217H723L725 221L729 223H738L742 219L741 214L724 209L718 205L716 201V194L720 188L726 185Z" fill="white"/>
<path d="M641 185H654L660 188L664 192L665 198H657L655 194L647 192L641 194L640 199L643 202L660 207L665 211L666 213V222L660 229L654 231H644L636 227L632 222L631 217H639L641 221L645 223H654L657 221L658 217L654 213L640 209L634 205L632 202V193L637 187L641 185Z" fill="white"/>
<path d="M380 185H388L389 201L392 198L400 197L406 200L409 203L410 206V230H402L401 208L396 205L390 206L389 210L388 230H380V185Z" fill="white"/>
<path d="M579 198H588L595 218L596 219L603 198H612L605 218L597 238L593 242L590 243H583V236L590 234L591 231L580 201L579 198Z" fill="white"/>
<path d="M431 197L439 198L445 203L446 206V230H438L437 208L433 205L427 206L425 209L424 230H416V198H424L425 200L431 197Z" fill="white"/>
<path d="M274 185H311V193L297 194V230H289L288 193H275L274 192V185Z" fill="white"/>
<path d="M356 197H363L371 201L375 208V210H367L362 205L355 206L353 208L352 215L355 222L361 223L366 220L367 218H375L374 223L369 229L363 231H356L348 227L344 220V208L347 202L350 199L356 197Z" fill="white"/>
<path d="M490 185H498V230H490V185Z" fill="white"/>
<path d="M531 200L536 206L537 208V220L533 226L528 230L525 231H517L509 227L505 221L504 211L507 203L512 199L517 197H524L531 200ZM516 205L513 208L512 217L513 219L517 223H525L527 221L530 216L529 209L525 205L519 204L516 205Z" fill="white"/>
<path d="M562 198L566 201L567 198H574V235L569 241L565 243H552L546 240L543 236L544 232L551 233L554 236H563L566 231L567 226H565V228L561 230H552L546 227L542 219V208L545 202L550 198L553 197L562 198ZM555 204L550 209V219L554 223H562L564 221L567 216L566 209L561 204H555Z" fill="white"/>
<path d="M478 200L483 206L484 209V219L481 225L475 230L472 231H464L456 227L452 221L451 211L454 203L459 199L464 197H471L478 200ZM462 206L459 211L460 220L464 223H472L476 218V209L472 205L466 204L462 206Z" fill="white"/>
<path d="M700 197L712 228V230H704L701 223V220H681L678 230H670L673 220L686 185H695L700 197ZM687 203L684 213H698L692 195L690 194L687 203Z" fill="white"/>
<path d="M330 198L336 202L339 207V217L315 216L317 221L321 223H328L333 220H339L337 226L331 230L328 231H320L312 227L308 221L307 213L309 205L313 200L321 197L330 198ZM320 204L317 206L316 211H332V209L327 204H320Z" fill="white"/>
</svg>
